<svg width="148" height="32" viewBox="0 0 148 32" fill="none" xmlns="http://www.w3.org/2000/svg">
<path d="M142.869 6.916C143.589 7.468 144.165 8.092 144.597 8.788C145.125 9.604 145.557 10.456 145.893 11.344C146.253 12.208 146.541 13.12 146.757 14.08C146.877 14.464 146.949 14.848 146.973 15.232C147.021 15.592 147.057 15.964 147.081 16.348C147.033 17.476 146.985 18.616 146.937 19.768C146.913 20.896 146.793 22.012 146.577 23.116C146.577 23.14 146.565 23.152 146.541 23.152C146.541 23.152 146.541 23.164 146.541 23.188C146.061 24.604 145.401 25.948 144.561 27.22C143.745 28.492 142.881 29.692 141.969 30.82C140.385 30.868 138.789 30.904 137.181 30.928C135.573 30.928 134.013 30.928 132.501 30.928C132.501 30.928 132.489 30.94 132.465 30.964C132.201 29.068 132.033 27.112 131.961 25.096C131.889 23.056 131.853 20.992 131.853 18.904C131.853 16.816 131.865 14.716 131.889 12.604C131.937 10.468 131.937 8.356 131.889 6.268C131.913 6.244 131.925 6.22 131.925 6.196C131.949 6.172 131.973 6.148 131.997 6.124C132.669 5.956 133.365 5.848 134.085 5.8C134.829 5.728 135.573 5.704 136.317 5.728C137.061 5.728 137.793 5.74 138.513 5.764C139.257 5.788 139.977 5.788 140.673 5.764C141.441 5.956 142.173 6.34 142.869 6.916ZM140.781 22.504C140.973 22.288 141.141 22.072 141.285 21.856C141.693 21.232 141.981 20.548 142.149 19.804C142.341 19.06 142.341 18.244 142.149 17.356C142.077 16.996 141.993 16.624 141.897 16.24C141.801 15.832 141.657 15.448 141.465 15.088C141.297 14.728 141.081 14.416 140.817 14.152C140.553 13.864 140.217 13.648 139.809 13.504C139.401 13.456 138.957 13.432 138.477 13.432C137.997 13.408 137.541 13.444 137.109 13.54H137.037H137.001V13.684C137.049 14.332 137.073 15.028 137.073 15.772C137.073 16.516 137.061 17.296 137.037 18.112C137.013 18.904 137.001 19.72 137.001 20.56C137.001 21.376 137.025 22.192 137.073 23.008C137.337 23.248 137.697 23.356 138.153 23.332C138.633 23.308 139.089 23.272 139.521 23.224C139.641 23.248 139.749 23.236 139.845 23.188C139.941 23.116 140.049 23.056 140.169 23.008C140.409 22.864 140.613 22.696 140.781 22.504Z" fill="white"/>
<path d="M125.033 21.068C126.569 21.14 128.153 21.152 129.785 21.104V21.176C129.833 21.944 129.845 22.748 129.821 23.588C129.797 24.404 129.689 25.172 129.497 25.892C127.049 25.868 124.553 25.904 122.009 26C119.489 26.072 117.065 26.012 114.737 25.82C114.737 23.732 114.713 21.668 114.665 19.628C114.617 17.564 114.581 15.512 114.557 13.472C114.533 11.432 114.533 9.392 114.557 7.352C114.581 5.312 114.653 3.26 114.773 1.196C115.709 1.148 116.717 1.112 117.797 1.088C118.901 1.04 120.005 1.004 121.109 0.98C122.213 0.956 123.281 0.932001 124.313 0.908001C125.345 0.884001 126.257 0.872002 127.049 0.872002C127.841 0.872002 128.477 0.884001 128.957 0.908001C129.437 0.932001 129.677 0.956 129.677 0.98C129.797 1.82 129.821 2.672 129.749 3.536C129.701 4.4 129.677 5.252 129.677 6.092V6.128C128.909 6.296 128.129 6.404 127.337 6.452C126.569 6.476 125.789 6.488 124.997 6.488C124.205 6.464 123.413 6.452 122.621 6.452C121.829 6.452 121.037 6.488 120.245 6.56H120.137L120.101 6.596C120.125 7.292 120.089 8.012 119.993 8.756C119.921 9.476 119.969 10.16 120.137 10.808L120.173 10.844C120.893 10.892 121.625 10.916 122.369 10.916C123.113 10.916 123.857 10.928 124.601 10.952V10.988C124.721 11.804 124.757 12.62 124.709 13.436C124.661 14.252 124.649 15.104 124.673 15.992C124.313 16.088 123.905 16.148 123.449 16.172C122.993 16.172 122.549 16.172 122.117 16.172C121.709 16.172 121.337 16.184 121.001 16.208C120.665 16.232 120.437 16.292 120.317 16.388C120.197 17.084 120.149 17.864 120.173 18.728C120.221 19.592 120.269 20.312 120.317 20.888L120.353 20.924C121.937 20.924 123.497 20.972 125.033 21.068Z" fill="white"/>
<path d="M109.929 18.724C109.977 18.82 110.061 18.94 110.181 19.084C110.565 19.564 110.925 20.044 111.261 20.524C111.621 20.98 111.921 21.472 112.161 22C112.425 22.504 112.605 23.068 112.701 23.692C112.797 24.316 112.773 25.012 112.629 25.78C112.437 26.908 112.065 27.832 111.513 28.552C110.985 29.248 110.337 29.788 109.569 30.172C108.801 30.556 107.949 30.82 107.013 30.964C106.077 31.084 105.105 31.144 104.097 31.144C103.113 31.168 102.117 31.144 101.109 31.072C100.125 31 99.2009 30.952 98.3369 30.928C98.1929 30.928 98.0489 30.928 97.9049 30.928C97.7849 30.928 97.6649 30.904 97.5449 30.856C97.4009 26.704 97.3649 22.588 97.4369 18.508C97.5089 14.404 97.5089 10.264 97.4369 6.088L97.4729 6.052C98.4329 5.788 99.4529 5.584 100.533 5.44C101.613 5.296 102.681 5.248 103.737 5.296C104.793 5.344 105.801 5.5 106.761 5.764C107.745 6.028 108.609 6.46 109.353 7.06C110.097 7.636 110.685 8.392 111.117 9.328C111.549 10.24 111.765 11.368 111.765 12.712C111.765 13.72 111.585 14.704 111.225 15.664C110.889 16.624 110.481 17.512 110.001 18.328C109.905 18.496 109.881 18.628 109.929 18.724ZM105.933 25.708C106.269 25.564 106.557 25.348 106.797 25.06C107.061 24.7 107.181 24.268 107.157 23.764C107.157 23.26 107.073 22.804 106.905 22.396C106.761 22.108 106.545 21.856 106.257 21.64C105.969 21.4 105.669 21.244 105.357 21.172C104.901 21.052 104.433 20.992 103.953 20.992C103.473 20.968 103.005 20.932 102.549 20.884C102.453 21.244 102.369 21.652 102.297 22.108C102.225 22.564 102.177 23.032 102.153 23.512C102.153 23.968 102.189 24.412 102.261 24.844C102.333 25.276 102.465 25.636 102.657 25.924L102.729 25.96C103.065 25.96 103.413 25.972 103.773 25.996C104.157 25.996 104.529 25.984 104.889 25.96C105.273 25.912 105.621 25.828 105.933 25.708ZM105.969 15.628C106.305 15.436 106.569 15.16 106.761 14.8C106.929 14.512 107.073 14.176 107.193 13.792C107.313 13.408 107.277 13.024 107.085 12.64C106.893 12.256 106.641 11.968 106.329 11.776C106.041 11.56 105.705 11.404 105.321 11.308C104.841 11.212 104.325 11.164 103.773 11.164C103.245 11.14 102.801 11.224 102.441 11.416C102.489 11.968 102.465 12.64 102.369 13.432C102.297 14.224 102.369 15.04 102.585 15.88C102.945 15.928 103.329 15.964 103.737 15.988C104.145 16.012 104.541 16 104.925 15.952C105.309 15.904 105.657 15.796 105.969 15.628Z" fill="white"/>
<path d="M94.5721 28.048C95.1001 28.96 95.5441 29.908 95.9041 30.892H95.9401C95.1001 30.892 94.1641 30.928 93.1321 31C92.1001 31.048 91.0441 31.036 89.9641 30.964H89.9281C89.6881 30.412 89.3881 29.752 89.0281 28.984C88.6681 28.216 88.2721 27.412 87.8401 26.572C87.4081 25.732 86.9401 24.904 86.4361 24.088C85.9321 23.272 85.4281 22.552 84.9241 21.928L84.8521 21.82C84.7801 22.372 84.7441 23.056 84.7441 23.872C84.7441 24.664 84.7561 25.492 84.7801 26.356C84.8281 27.196 84.8761 28 84.9241 28.768C84.9721 29.536 85.0081 30.148 85.0321 30.604C84.6241 30.772 84.0841 30.88 83.4121 30.928C82.7641 30.976 82.1161 31 81.4681 31C80.8201 31.024 80.2321 31.024 79.7041 31C79.2001 30.976 78.8881 30.976 78.7681 31C78.8161 31 78.8521 30.676 78.8761 30.028C78.9001 29.356 78.9121 28.48 78.9121 27.4C78.9121 26.32 78.9121 25.084 78.9121 23.692C78.9121 22.276 78.9001 20.824 78.8761 19.336C78.8761 17.824 78.8521 16.336 78.8041 14.872C78.7801 13.384 78.7561 12.028 78.7321 10.804C78.7081 9.556 78.6721 8.5 78.6241 7.636C78.6001 6.748 78.5641 6.148 78.5161 5.836C79.8601 5.644 81.3361 5.464 82.9441 5.296C84.5521 5.128 86.2321 5.14 87.9841 5.332C89.4001 5.404 90.6721 5.812 91.8001 6.556C92.9281 7.3 93.8041 8.224 94.4281 9.328C95.0521 10.432 95.3761 11.656 95.4001 13C95.4481 14.32 95.1001 15.604 94.3561 16.852C93.9001 17.716 93.2881 18.436 92.5201 19.012C91.7761 19.588 90.8281 19.912 89.6761 19.984H89.5321H89.4961V20.02C90.0001 20.908 90.5521 21.796 91.1521 22.684C91.7521 23.548 92.3401 24.424 92.9161 25.312C93.4921 26.2 94.0441 27.112 94.5721 28.048ZM86.2561 10.336C85.4401 10.36 84.6121 10.54 83.7721 10.876C83.7961 11.188 83.8081 11.548 83.8081 11.956C83.8321 12.34 83.8441 12.736 83.8441 13.144C83.8441 13.552 83.8441 13.948 83.8441 14.332C83.8681 14.716 83.9041 15.04 83.9521 15.304H83.9881C84.5401 15.352 85.1401 15.388 85.7881 15.412C86.4361 15.436 87.0481 15.4 87.6241 15.304C88.0801 15.208 88.4281 14.98 88.6681 14.62C88.9321 14.236 89.0881 13.828 89.1361 13.396C89.1841 12.94 89.1361 12.496 88.9921 12.064C88.8481 11.608 88.6081 11.248 88.2721 10.984C87.7441 10.504 87.0721 10.288 86.2561 10.336Z" fill="white"/>
<path d="M74.9204 1.592C75.3764 1.64 75.7484 1.748 76.0364 1.916C76.1804 4.988 76.2284 8.096 76.1804 11.24C76.1324 14.36 75.9404 17.468 75.6044 20.564C75.4124 22.148 74.8124 23.492 73.8044 24.596C72.7964 25.7 71.4284 26.336 69.7004 26.504C68.6924 26.6 67.6484 26.552 66.5684 26.36C65.4884 26.192 64.5044 25.88 63.6164 25.424C62.7524 24.944 62.0204 24.32 61.4204 23.552C60.8444 22.76 60.5324 21.812 60.4844 20.708C60.4844 17.54 60.5204 14.348 60.5924 11.132C60.6644 7.916 60.6764 4.724 60.6284 1.556L60.5924 1.52H60.6284C60.9884 1.52 61.3844 1.508 61.8164 1.484C62.2724 1.46 62.7284 1.448 63.1844 1.448C63.6404 1.448 64.0844 1.472 64.5164 1.52C64.9484 1.544 65.3444 1.604 65.7044 1.7V1.736C65.4404 7.544 65.5484 13.436 66.0284 19.412C66.1964 19.988 66.4964 20.408 66.9284 20.672C67.3844 20.936 67.8524 21.056 68.3324 21.032C68.8124 21.008 69.2564 20.84 69.6644 20.528C70.0724 20.216 70.3364 19.784 70.4564 19.232C70.5764 16.352 70.6364 13.424 70.6364 10.448C70.6604 7.472 70.7084 4.592 70.7804 1.808C71.0924 1.784 71.4884 1.748 71.9684 1.7C72.4724 1.628 72.9764 1.58 73.4804 1.556C73.9844 1.532 74.4644 1.544 74.9204 1.592Z" fill="white"/>
<path d="M51.1114 5.62C53.7274 5.596 56.2714 5.716 58.7434 5.98C58.7914 6.772 58.8034 7.684 58.7794 8.716C58.7794 9.748 58.7194 10.696 58.5994 11.56C58.1434 11.464 57.5794 11.428 56.9074 11.452C56.2354 11.476 55.3354 11.512 54.2074 11.56H54.1354H54.0994C54.0994 11.584 54.0874 11.608 54.0634 11.632C54.0634 11.632 54.0634 11.644 54.0634 11.668C54.0394 11.788 54.0154 11.98 53.9914 12.244C53.9914 12.484 53.9914 12.88 53.9914 13.432C53.9914 13.96 53.9914 14.668 53.9914 15.556C54.0154 16.42 54.0394 17.548 54.0634 18.94C54.0874 20.308 54.1114 21.964 54.1354 23.908C54.1594 25.828 54.1954 28.096 54.2434 30.712V30.748V30.784C53.8114 30.856 53.3314 30.904 52.8034 30.928C52.2994 30.928 51.7834 30.928 51.2554 30.928C50.7514 30.928 50.2474 30.928 49.7434 30.928C49.2394 30.928 48.7714 30.964 48.3394 31.036C48.3154 30.94 48.3154 30.508 48.3394 29.74C48.3634 28.972 48.3754 27.832 48.3754 26.32C48.3994 24.784 48.3874 22.828 48.3394 20.452C48.3154 18.076 48.2314 15.208 48.0874 11.848L48.0514 11.812C47.7634 11.668 47.4034 11.584 46.9714 11.56C46.5394 11.512 46.1074 11.488 45.6754 11.488C45.2434 11.464 44.8474 11.452 44.4874 11.452C44.1274 11.452 43.8754 11.428 43.7314 11.38C43.6834 11.284 43.6354 11.044 43.5874 10.66C43.5634 10.276 43.5394 9.82 43.5154 9.292C43.5154 8.74 43.5154 8.152 43.5154 7.528C43.5154 6.904 43.5394 6.304 43.5874 5.728C43.5874 5.704 43.5754 5.692 43.5514 5.692C43.5514 5.692 43.5514 5.68 43.5514 5.656C45.9994 5.632 48.5194 5.62 51.1114 5.62Z" fill="white"/>
<path d="M41.9547 9.472C42.5787 10.648 42.7227 12.136 42.3867 13.936H42.3507C41.5107 14.08 40.6107 14.176 39.6507 14.224C38.6907 14.248 37.7907 14.14 36.9507 13.9C37.0947 13.252 36.9627 12.712 36.5547 12.28C36.1467 11.848 35.6547 11.572 35.0787 11.452C34.5027 11.332 33.9387 11.392 33.3867 11.632C32.8587 11.872 32.5467 12.328 32.4507 13C32.4027 13.168 32.3787 13.336 32.3787 13.504C32.4027 13.648 32.4267 13.804 32.4507 13.972C32.6427 14.548 32.9547 14.932 33.3867 15.124C33.8187 15.316 34.2867 15.448 34.7907 15.52C36.0627 15.664 37.2387 16.072 38.3187 16.744C39.4227 17.416 40.3227 18.268 41.0187 19.3C41.4507 19.852 41.7747 20.452 41.9907 21.1C42.2067 21.724 42.3267 22.372 42.3507 23.044C42.3987 23.716 42.3507 24.4 42.2067 25.096C42.0867 25.768 41.8827 26.416 41.5947 27.04C41.3067 27.784 40.9227 28.42 40.4427 28.948C39.9627 29.476 39.4107 29.908 38.7867 30.244C38.1867 30.58 37.5267 30.832 36.8067 31C36.1107 31.144 35.3907 31.204 34.6467 31.18C33.5907 31.156 32.5347 30.976 31.4787 30.64C30.4467 30.28 29.5227 29.788 28.7067 29.164C27.8907 28.54 27.2427 27.784 26.7627 26.896C26.2827 25.984 26.0787 24.952 26.1507 23.8V23.692V23.584C26.9907 23.464 27.9147 23.44 28.9227 23.512C29.9307 23.56 30.8427 23.572 31.6587 23.548C31.7067 24.316 32.0067 24.892 32.5587 25.276C33.1347 25.66 33.7347 25.852 34.3587 25.852C35.0067 25.828 35.5587 25.612 36.0147 25.204C36.4947 24.796 36.6627 24.172 36.5187 23.332C36.4467 22.756 36.2307 22.3 35.8707 21.964C35.5107 21.604 35.0787 21.316 34.5747 21.1C34.0947 20.884 33.5667 20.728 32.9907 20.632C32.4147 20.512 31.8747 20.404 31.3707 20.308C30.8907 20.212 30.4467 20.056 30.0387 19.84C29.6307 19.624 29.2587 19.372 28.9227 19.084C27.8187 18.028 27.0987 16.864 26.7627 15.592C26.4507 14.32 26.4387 13.084 26.7267 11.884C27.0147 10.684 27.5547 9.592 28.3467 8.608C29.1627 7.624 30.1467 6.892 31.2987 6.412C31.8747 6.172 32.5107 6.016 33.2067 5.944C33.9027 5.848 34.5987 5.824 35.2947 5.872C36.0147 5.896 36.7107 5.992 37.3827 6.16C38.0787 6.328 38.7147 6.544 39.2907 6.808C40.4427 7.408 41.3307 8.296 41.9547 9.472Z" fill="white"/>
<path d="M21.0112 1.692C21.5872 1.716 22.4152 1.716 23.4952 1.692H24.3592V1.836C24.3592 3.9 24.3232 5.976 24.2512 8.064C24.2032 10.152 24.1552 12.252 24.1072 14.364C24.0832 16.452 24.0832 18.54 24.1072 20.628C24.1312 22.716 24.2032 24.78 24.3232 26.82C24.1312 27.012 23.7232 27.12 23.0992 27.144C22.4992 27.192 21.8392 27.204 21.1192 27.18C20.4232 27.156 19.7512 27.12 19.1032 27.072C18.4552 27.048 18.0112 27.072 17.7712 27.144C17.9392 24.984 18.0112 22.812 17.9872 20.628C17.9632 18.444 17.9152 16.284 17.8432 14.148C17.7952 11.988 17.7592 9.864 17.7352 7.776C17.7352 5.664 17.8432 3.6 18.0592 1.584V1.512C18.1792 1.488 18.4072 1.5 18.7432 1.548C19.1032 1.572 19.3672 1.584 19.5352 1.584C19.9672 1.608 20.4592 1.644 21.0112 1.692Z" fill="white"/>
<path d="M11.42 6.916C12.14 7.468 12.716 8.092 13.148 8.788C13.676 9.604 14.108 10.456 14.444 11.344C14.804 12.208 15.092 13.12 15.308 14.08C15.428 14.464 15.5 14.848 15.524 15.232C15.572 15.592 15.608 15.964 15.632 16.348C15.584 17.476 15.536 18.616 15.488 19.768C15.464 20.896 15.344 22.012 15.128 23.116C15.128 23.14 15.116 23.152 15.092 23.152C15.092 23.152 15.092 23.164 15.092 23.188C14.612 24.604 13.952 25.948 13.112 27.22C12.296 28.492 11.432 29.692 10.52 30.82C8.93599 30.868 7.33999 30.904 5.73199 30.928C4.12399 30.928 2.56399 30.928 1.05199 30.928C1.05199 30.928 1.03999 30.94 1.01599 30.964C0.751992 29.068 0.583992 27.112 0.511992 25.096C0.439992 23.056 0.403992 20.992 0.403992 18.904C0.403992 16.816 0.415992 14.716 0.439992 12.604C0.487992 10.468 0.487992 8.356 0.439992 6.268C0.463992 6.244 0.475992 6.22 0.475992 6.196C0.499992 6.172 0.523992 6.148 0.547992 6.124C1.21999 5.956 1.91599 5.848 2.63599 5.8C3.37999 5.728 4.12399 5.704 4.86799 5.728C5.61199 5.728 6.34399 5.74 7.06399 5.764C7.80799 5.788 8.52799 5.788 9.22399 5.764C9.99199 5.956 10.724 6.34 11.42 6.916ZM9.33199 22.504C9.52399 22.288 9.69199 22.072 9.83599 21.856C10.244 21.232 10.532 20.548 10.7 19.804C10.892 19.06 10.892 18.244 10.7 17.356C10.628 16.996 10.544 16.624 10.448 16.24C10.352 15.832 10.208 15.448 10.016 15.088C9.84799 14.728 9.63199 14.416 9.36799 14.152C9.10399 13.864 8.76799 13.648 8.35999 13.504C7.95199 13.456 7.50799 13.432 7.02799 13.432C6.54799 13.408 6.09199 13.444 5.65999 13.54H5.58799H5.55199V13.684C5.59999 14.332 5.62399 15.028 5.62399 15.772C5.62399 16.516 5.61199 17.296 5.58799 18.112C5.56399 18.904 5.55199 19.72 5.55199 20.56C5.55199 21.376 5.57599 22.192 5.62399 23.008C5.88799 23.248 6.24799 23.356 6.70399 23.332C7.18399 23.308 7.63999 23.272 8.07199 23.224C8.19199 23.248 8.29999 23.236 8.39599 23.188C8.49199 23.116 8.59999 23.056 8.71999 23.008C8.95999 22.864 9.16399 22.696 9.33199 22.504Z" fill="white"/>
</svg>
