<svg width="48" height="48" viewBox="0 0 48 48" fill="none" xmlns="http://www.w3.org/2000/svg">
<rect x="0.5" y="0.5" width="47" height="47" rx="7.5" fill="#EFD1A4" stroke="#414141"/>
<path d="M29.1915 8.65954C30.1844 9.42484 30.9787 10.29 31.5745 11.2549C32.3026 12.3862 32.8983 13.5674 33.3617 14.7986C33.8582 15.9964 34.2553 17.2608 34.5532 18.5918C34.7187 19.1242 34.818 19.6566 34.8511 20.1889C34.9173 20.6881 34.9669 21.2038 35 21.7362C34.9338 23.3001 34.8676 24.8806 34.8014 26.4777C34.7683 28.0416 34.6028 29.5888 34.305 31.1194C34.305 31.1527 34.2884 31.1693 34.2553 31.1693C34.2553 31.1693 34.2553 31.186 34.2553 31.2193C33.5934 33.1824 32.6832 35.0457 31.5248 36.8093C30.3995 38.5728 29.208 40.2365 27.9504 41.8004C25.766 41.8669 23.565 41.9168 21.3475 41.9501C19.13 41.9501 16.9787 41.9501 14.8936 41.9501C14.8936 41.9501 14.8771 41.9667 14.844 42C14.4799 39.3714 14.2482 36.6595 14.1489 33.8645C14.0496 31.0362 14 28.1747 14 25.2799C14 22.385 14.0165 19.4736 14.0496 16.5455C14.1158 13.5841 14.1158 10.656 14.0496 7.76114C14.0827 7.72787 14.0993 7.69459 14.0993 7.66132C14.1324 7.62804 14.1655 7.59477 14.1986 7.5615C15.1253 7.32858 16.0851 7.17885 17.078 7.1123C18.104 7.01248 19.13 6.9792 20.156 7.01248C21.182 7.01248 22.1915 7.02912 23.1844 7.06239C24.2104 7.09566 25.2033 7.09566 26.1631 7.06239C27.2222 7.32858 28.2317 7.86096 29.1915 8.65954ZM26.3121 30.2709C26.5768 29.9715 26.8085 29.672 27.0071 29.3725C27.5697 28.5074 27.9669 27.5591 28.1986 26.5276C28.4634 25.4961 28.4634 24.3648 28.1986 23.1337C28.0993 22.6346 27.9835 22.1188 27.8511 21.5865C27.7187 21.0208 27.5201 20.4884 27.2553 19.9893C27.0236 19.4902 26.7258 19.0576 26.3617 18.6916C25.9976 18.2923 25.5343 17.9929 24.9716 17.7932C24.409 17.7267 23.7967 17.6934 23.1348 17.6934C22.4728 17.6601 21.844 17.71 21.2482 17.8431H21.1489H21.0993V18.0428C21.1655 18.9412 21.1986 19.9061 21.1986 20.9376C21.1986 21.9691 21.182 23.0505 21.1489 24.1818C21.1158 25.2799 21.0993 26.4112 21.0993 27.5758C21.0993 28.7071 21.1324 29.8384 21.1986 30.9697C21.5626 31.3024 22.0591 31.4522 22.6879 31.4189C23.3499 31.3856 23.9787 31.3357 24.5745 31.2692C24.74 31.3024 24.8889 31.2858 25.0213 31.2193C25.1537 31.1194 25.3026 31.0362 25.4681 30.9697C25.7991 30.7701 26.0804 30.5371 26.3121 30.2709Z" fill="#414141"/>
</svg>
