<svg width="148" height="32" fill="none" xmlns="http://www.w3.org/2000/svg"><path d="M142.869 6.916a7.048 7.048 0 0 1 1.728 1.872c.528.816.96 1.668 1.296 2.556.36.864.648 1.776.864 2.736.12.384.192.768.216 1.152.048.36.084.732.108 1.116l-.144 3.42a19.572 19.572 0 0 1-.36 3.348c0 .024-.012.036-.036.036v.036a17.469 17.469 0 0 1-1.98 4.032 40.505 40.505 0 0 1-2.592 3.6c-1.584.048-3.18.084-4.788.108h-4.68l-.036.036a57.392 57.392 0 0 1-.504-5.868c-.072-2.04-.108-4.104-.108-6.192s.012-4.188.036-6.3c.048-2.136.048-4.248 0-6.336.024-.024.036-.048.036-.072l.072-.072a11.84 11.84 0 0 1 2.088-.324 17.343 17.343 0 0 1 2.232-.072c.744 0 1.476.012 2.196.036a32.4 32.4 0 0 0 2.16 0c.768.192 1.5.576 2.196 1.152Zm-2.088 15.588c.192-.216.36-.432.504-.648a6.221 6.221 0 0 0 .864-2.052c.192-.744.192-1.56 0-2.448-.072-.36-.156-.732-.252-1.116a4.747 4.747 0 0 0-.432-1.152 3.258 3.258 0 0 0-.648-.936 2.44 2.44 0 0 0-1.008-.648 11.44 11.44 0 0 0-1.332-.072 5.107 5.107 0 0 0-1.368.108H137.001v.144c.048.648.072 1.344.072 2.088s-.012 1.524-.036 2.34a80.868 80.868 0 0 0-.036 2.448c0 .816.024 1.632.072 2.448.264.24.624.348 1.08.324.48-.024.936-.06 1.368-.108a.49.49 0 0 0 .324-.036c.096-.072.204-.132.324-.18.24-.144.444-.312.612-.504ZM125.033 21.068c1.536.072 3.12.084 4.752.036v.072c.048.768.06 1.572.036 2.412a10.068 10.068 0 0 1-.324 2.304c-2.448-.024-4.944.012-7.488.108-2.52.072-4.944.012-7.272-.18 0-2.088-.024-4.152-.072-6.192a535.984 535.984 0 0 1-.108-6.156c-.024-2.04-.024-4.08 0-6.12s.096-4.092.216-6.156c.936-.048 1.944-.084 3.024-.108a152.6 152.6 0 0 1 3.312-.108l3.204-.072c1.032-.024 1.944-.036 2.736-.036.792 0 1.428.012 1.908.036.48.024.72.048.72.072.12.84.144 1.692.072 2.556a46.078 46.078 0 0 0-.072 2.556v.036a15.25 15.25 0 0 1-2.34.324c-.768.024-1.548.036-2.34.036a78.44 78.44 0 0 0-2.376-.036c-.792 0-1.584.036-2.376.108h-.108l-.036.036c.024.696-.012 1.416-.108 2.16a5.814 5.814 0 0 0 .144 2.052l.036.036c.72.048 1.452.072 2.196.072.744 0 1.488.012 2.232.036v.036c.12.816.156 1.632.108 2.448-.048.816-.06 1.668-.036 2.556-.36.096-.768.156-1.224.18h-1.332c-.408 0-.78.012-1.116.036-.336.024-.564.084-.684.18-.12.696-.168 1.476-.144 2.34.048.864.096 1.584.144 2.16l.036.036c1.584 0 3.144.048 4.68.144ZM109.929 18.724c.048.096.132.216.252.36.384.48.744.96 1.08 1.44.36.456.66.948.9 1.476.264.504.444 1.068.54 1.692.096.624.072 1.32-.072 2.088-.192 1.128-.564 2.052-1.116 2.772a5.5 5.5 0 0 1-1.944 1.62 8.603 8.603 0 0 1-2.556.792c-.936.12-1.908.18-2.916.18-.984.024-1.98 0-2.988-.072a61.518 61.518 0 0 0-2.772-.144h-.432a.963.963 0 0 1-.36-.072c-.144-4.152-.18-8.268-.108-12.348.072-4.104.072-8.244 0-12.42l.036-.036c.96-.264 1.98-.468 3.06-.612a18.012 18.012 0 0 1 3.204-.144 13.72 13.72 0 0 1 3.024.468 6.938 6.938 0 0 1 2.592 1.296c.744.576 1.332 1.332 1.764 2.268.432.912.648 2.04.648 3.384 0 1.008-.18 1.992-.54 2.952-.336.96-.744 1.848-1.224 2.664-.096.168-.12.3-.072.396Zm-3.996 6.984c.336-.144.624-.36.864-.648.264-.36.384-.792.36-1.296 0-.504-.084-.96-.252-1.368a2.143 2.143 0 0 0-.648-.756 2.169 2.169 0 0 0-.9-.468 5.494 5.494 0 0 0-1.404-.18 25.65 25.65 0 0 1-1.404-.108 13.235 13.235 0 0 0-.396 2.628c0 .456.036.9.108 1.332.072.432.204.792.396 1.08l.072.036c.336 0 .684.012 1.044.036.384 0 .756-.012 1.116-.036a4.435 4.435 0 0 0 1.044-.252Zm.036-10.08c.336-.192.6-.468.792-.828.168-.288.312-.624.432-1.008s.084-.768-.108-1.152c-.192-.384-.444-.672-.756-.864a2.784 2.784 0 0 0-1.008-.468 7.891 7.891 0 0 0-1.548-.144c-.528-.024-.972.06-1.332.252.048.552.024 1.224-.072 2.016-.072.792 0 1.608.216 2.448.36.048.744.084 1.152.108a6.49 6.49 0 0 0 1.188-.036 2.954 2.954 0 0 0 1.044-.324ZM94.572 28.048c.528.912.972 1.86 1.332 2.844h.036c-.84 0-1.776.036-2.808.108a28.03 28.03 0 0 1-3.168-.036h-.036a78.817 78.817 0 0 0-2.088-4.392c-.432-.84-.9-1.668-1.404-2.484a21.024 21.024 0 0 0-1.512-2.16l-.072-.108a16.277 16.277 0 0 0-.108 2.052c0 .792.012 1.62.036 2.484.048.84.096 1.644.144 2.412.048.768.084 1.38.108 1.836-.408.168-.948.276-1.62.324-.648.048-1.296.072-1.944.072-.648.024-1.236.024-1.764 0-.504-.024-.816-.024-.936 0 .048 0 .084-.324.108-.972.024-.672.036-1.548.036-2.628v-3.708c0-1.416-.012-2.868-.036-4.356 0-1.512-.024-3-.072-4.464-.024-1.488-.048-2.844-.072-4.068a89.617 89.617 0 0 0-.108-3.168c-.024-.888-.06-1.488-.108-1.8 1.344-.192 2.82-.372 4.428-.54a23.645 23.645 0 0 1 5.04.036c1.416.072 2.688.48 3.816 1.224 1.128.744 2.004 1.668 2.628 2.772.624 1.104.948 2.328.972 3.672.048 1.32-.3 2.604-1.044 3.852a6.394 6.394 0 0 1-1.836 2.16c-.744.576-1.692.9-2.844.972h-.18v.036a40.236 40.236 0 0 0 1.656 2.664c.6.864 1.188 1.74 1.764 2.628.576.888 1.128 1.8 1.656 2.736Zm-8.316-17.712a7.236 7.236 0 0 0-2.484.54c.024.312.036.672.036 1.08.024.384.036.78.036 1.188v1.188c.024.384.06.708.108.972h.036c.552.048 1.152.084 1.8.108a9.108 9.108 0 0 0 1.836-.108c.456-.096.804-.324 1.044-.684.264-.384.42-.792.468-1.224.048-.456 0-.9-.144-1.332-.144-.456-.384-.816-.72-1.08-.528-.48-1.2-.696-2.016-.648ZM74.92 1.592c.456.048.828.156 1.116.324.144 3.072.192 6.18.144 9.324-.048 3.12-.24 6.228-.576 9.324-.192 1.584-.792 2.928-1.8 4.032s-2.376 1.74-4.104 1.908a11.57 11.57 0 0 1-3.132-.144 9.67 9.67 0 0 1-2.952-.936 7.182 7.182 0 0 1-2.196-1.872c-.576-.792-.888-1.74-.936-2.844 0-3.168.036-6.36.108-9.576.072-3.216.084-6.408.036-9.576l-.036-.036h.036c.36 0 .756-.012 1.188-.036.456-.024.912-.036 1.368-.036.456 0 .9.024 1.332.072.432.024.828.084 1.188.18v.036c-.264 5.808-.156 11.7.324 17.676.168.576.468.996.9 1.26a2.51 2.51 0 0 0 1.404.36c.48-.024.924-.192 1.332-.504.408-.312.672-.744.792-1.296.12-2.88.18-5.808.18-8.784.024-2.976.072-5.856.144-8.64.312-.024.708-.06 1.188-.108.504-.072 1.008-.12 1.512-.144a9.46 9.46 0 0 1 1.44.036ZM51.111 5.62c2.616-.024 5.16.096 7.632.36.048.792.06 1.704.036 2.736 0 1.032-.06 1.98-.18 2.844-.456-.096-1.02-.132-1.692-.108-.672.024-1.572.06-2.7.108H54.1c0 .024-.012.048-.036.072v.036c-.024.12-.048.312-.072.576V15.556c.024.864.048 1.992.072 3.384.024 1.368.048 3.024.072 4.968.024 1.92.06 4.188.108 6.804v.072c-.432.072-.912.12-1.44.144h-3.06c-.504 0-.972.036-1.404.108-.024-.096-.024-.528 0-1.296s.036-1.908.036-3.42c.024-1.536.012-3.492-.036-5.868a268.994 268.994 0 0 0-.252-8.604l-.036-.036c-.288-.144-.648-.228-1.08-.252a11.727 11.727 0 0 0-1.296-.072 21.55 21.55 0 0 0-1.188-.036c-.36 0-.612-.024-.756-.072-.048-.096-.096-.336-.144-.72a82.14 82.14 0 0 1-.072-1.368V7.528c0-.624.024-1.224.072-1.8 0-.024-.012-.036-.036-.036v-.036c2.448-.024 4.968-.036 7.56-.036ZM41.955 9.472c.624 1.176.768 2.664.432 4.464h-.036c-.84.144-1.74.24-2.7.288a8.964 8.964 0 0 1-2.7-.324c.144-.648.012-1.188-.396-1.62a2.761 2.761 0 0 0-1.476-.828 2.744 2.744 0 0 0-1.692.18c-.528.24-.84.696-.936 1.368a1.827 1.827 0 0 0-.072.504c.024.144.048.3.072.468.192.576.504.96.936 1.152.432.192.9.324 1.404.396a8.38 8.38 0 0 1 3.528 1.224 8.603 8.603 0 0 1 2.7 2.556c.432.552.756 1.152.972 1.8.216.624.336 1.272.36 1.944.048.672 0 1.356-.144 2.052a7.96 7.96 0 0 1-.612 1.944 6.046 6.046 0 0 1-1.152 1.908c-.48.528-1.032.96-1.656 1.296a7.53 7.53 0 0 1-1.98.756 9.167 9.167 0 0 1-2.16.18 11.25 11.25 0 0 1-3.168-.54 9.887 9.887 0 0 1-2.772-1.476 7.047 7.047 0 0 1-1.944-2.268c-.48-.912-.684-1.944-.612-3.096v-.216c.84-.12 1.764-.144 2.772-.072 1.008.048 1.92.06 2.736.036.048.768.348 1.344.9 1.728.576.384 1.176.576 1.8.576.648-.024 1.2-.24 1.656-.648.48-.408.648-1.032.504-1.872-.072-.576-.288-1.032-.648-1.368a4.086 4.086 0 0 0-1.296-.864 6.413 6.413 0 0 0-1.584-.468 96.536 96.536 0 0 0-1.62-.324 4.871 4.871 0 0 1-1.332-.468 6.075 6.075 0 0 1-1.116-.756c-1.104-1.056-1.824-2.22-2.16-3.492-.312-1.272-.324-2.508-.036-3.708a8.234 8.234 0 0 1 1.62-3.276 7.572 7.572 0 0 1 2.952-2.196 6.74 6.74 0 0 1 1.908-.468c.696-.096 1.392-.12 2.088-.072.72.024 1.416.12 2.088.288.696.168 1.332.384 1.908.648 1.152.6 2.04 1.488 2.664 2.664ZM21.011 1.692c.576.024 1.404.024 2.484 0h.864v.144c0 2.064-.036 4.14-.108 6.228l-.144 6.3a272.493 272.493 0 0 0 0 6.264 131.1 131.1 0 0 0 .216 6.192c-.192.192-.6.3-1.224.324-.6.048-1.26.06-1.98.036a51.195 51.195 0 0 1-2.016-.108c-.648-.024-1.092 0-1.332.072.168-2.16.24-4.332.216-6.516a285.473 285.473 0 0 0-.144-6.48 594.35 594.35 0 0 1-.108-6.372c0-2.112.108-4.176.324-6.192v-.072c.12-.024.348-.012.684.036.36.024.624.036.792.036.432.024.924.06 1.476.108ZM11.42 6.916a7.048 7.048 0 0 1 1.728 1.872c.528.816.96 1.668 1.296 2.556.36.864.648 1.776.864 2.736.12.384.192.768.216 1.152.048.36.084.732.108 1.116l-.144 3.42a19.572 19.572 0 0 1-.36 3.348c0 .024-.012.036-.036.036v.036a17.469 17.469 0 0 1-1.98 4.032 40.505 40.505 0 0 1-2.592 3.6c-1.584.048-3.18.084-4.788.108h-4.68l-.036.036a57.392 57.392 0 0 1-.504-5.868c-.072-2.04-.108-4.104-.108-6.192s.012-4.188.036-6.3c.048-2.136.048-4.248 0-6.336.024-.024.036-.048.036-.072l.072-.072A11.84 11.84 0 0 1 2.636 5.8a17.343 17.343 0 0 1 2.232-.072c.744 0 1.476.012 2.196.036a32.4 32.4 0 0 0 2.16 0c.768.192 1.5.576 2.196 1.152ZM9.332 22.504c.192-.216.36-.432.504-.648a6.221 6.221 0 0 0 .864-2.052c.192-.744.192-1.56 0-2.448-.072-.36-.156-.732-.252-1.116a4.747 4.747 0 0 0-.432-1.152 3.259 3.259 0 0 0-.648-.936 2.44 2.44 0 0 0-1.008-.648 11.44 11.44 0 0 0-1.332-.072 5.107 5.107 0 0 0-1.368.108H5.552v.144c.048.648.072 1.344.072 2.088s-.012 1.524-.036 2.34a80.868 80.868 0 0 0-.036 2.448c0 .816.024 1.632.072 2.448.264.24.624.348 1.08.324.48-.024.936-.06 1.368-.108a.49.49 0 0 0 .324-.036c.096-.072.204-.132.324-.18.24-.144.444-.312.612-.504Z" fill="#fff"/></svg>