<svg width="48" height="48" fill="none" xmlns="http://www.w3.org/2000/svg"><rect x=".5" y=".5" width="47" height="47" rx="7.5" fill="#EFD1A4" stroke="#414141"/><path d="M29.192 8.66c.992.765 1.787 1.63 2.383 2.595a18.716 18.716 0 0 1 1.787 3.544 23.01 23.01 0 0 1 1.191 3.793c.166.532.265 1.065.298 1.597.066.5.116 1.015.149 1.547l-.199 4.742a27.282 27.282 0 0 1-.496 4.641c0 .034-.017.05-.05.05v.05a24.273 24.273 0 0 1-2.73 5.59A56.174 56.174 0 0 1 27.95 41.8c-2.184.067-4.385.117-6.602.15h-6.454l-.05.05a79.977 79.977 0 0 1-.695-8.136c-.1-2.828-.149-5.69-.149-8.584 0-2.895.017-5.806.05-8.735.066-2.96.066-5.889 0-8.784.033-.033.05-.066.05-.1l.099-.1a16.246 16.246 0 0 1 2.879-.449c1.026-.1 2.052-.133 3.078-.1 1.026 0 2.036.017 3.028.05 1.026.034 2.02.034 2.98 0 1.058.267 2.068.799 3.027 1.598Zm-2.88 21.61c.265-.299.496-.598.695-.898a8.651 8.651 0 0 0 1.192-2.844c.264-1.032.264-2.163 0-3.394-.1-.5-.216-1.015-.348-1.547a6.602 6.602 0 0 0-.596-1.598c-.231-.499-.53-.931-.893-1.297a3.365 3.365 0 0 0-1.39-.899c-.563-.066-1.175-.1-1.837-.1a7.006 7.006 0 0 0-1.887.15H21.1v.2c.067.898.1 1.863.1 2.895 0 1.031-.017 2.113-.05 3.244-.033 1.098-.05 2.23-.05 3.394 0 1.131.033 2.262.1 3.394.364.332.86.482 1.489.449.662-.033 1.29-.083 1.887-.15a.674.674 0 0 0 .446-.05c.133-.1.282-.183.447-.25.331-.199.612-.432.844-.698Z" fill="#414141"/></svg>